{"glyphs":{":":{"x_min":0,"x_max":250,"ha":250,"o":"m 80 452 l 80 555 l 169 555 l 169 452 z m 80 0 l 80 103 l 169 103 l 169 0 z"},"$":{"x_min":0,"x_max":498,"ha":498,"o":"m 223 438 l 223 677 q 180 672 154 640 q 129 607 129 557 q 129 512 151 484 q 173 456 223 438 z m 223 -97 l 223 -1 q 129 4 83 57 q 37 109 37 211 q 37 223 37 229 q 38 235 38 240 l 120 240 q 120 236 120 228 q 119 220 119 217 q 119 141 144 105 q 168 69 219 69 l 223 69 l 223 351 q 129 383 88 432 q 47 480 47 557 q 47 640 94 690 q 142 740 223 744 l 223 812 l 266 812 l 266 745 q 351 737 394 690 q 437 644 437 561 l 437 550 l 357 550 l 357 554 q 357 609 335 639 q 312 669 266 676 l 266 423 q 374 384 416 337 q 458 289 458 210 q 458 113 408 59 q 357 4 266 0 l 266 -97 z m 266 68 q 316 71 345 107 q 374 143 374 203 q 374 252 348 284 q 321 316 266 334 z"},"?":{"x_min":0,"x_max":497,"ha":497,"o":"m 210 189 q 209 198 209 206 q 209 215 209 227 q 209 279 224 318 q 238 356 289 417 q 292 420 297 426 q 361 502 361 578 q 361 633 334 665 q 308 697 262 697 q 210 697 183 659 q 156 621 156 548 l 156 533 l 75 533 l 75 546 q 75 655 123 712 q 170 770 261 770 q 348 770 398 718 q 449 666 449 576 q 449 485 361 382 l 360 381 l 359 380 q 286 294 286 219 q 286 208 286 202 q 287 195 287 189 z m 206 0 l 206 103 l 289 103 l 289 0 z"},"<":{"x_min":0,"x_max":833,"ha":833,"o":"m 704 491 l 231 298 l 704 106 l 704 31 l 129 267 l 129 330 l 704 566 z"},"'":{"x_min":0,"x_max":155,"ha":155,"o":"m 112 701 l 112 430 l 44 430 l 44 701 z"},"=":{"x_min":0,"x_max":833,"ha":833,"o":"m 709 235 l 709 167 l 124 167 l 124 235 z m 709 429 l 709 361 l 124 361 l 124 429 z"},"a":{"x_min":0,"x_max":446,"ha":446,"o":"m 301 303 q 282 283 219 260 q 213 258 211 257 q 156 238 140 214 q 123 190 123 143 q 123 101 142 78 q 160 55 194 55 q 243 55 272 92 q 301 129 301 192 z m 425 -1 q 410 -3 399 -5 q 388 -6 379 -6 q 346 -6 327 15 q 308 36 306 75 q 288 32 254 9 q 220 -14 173 -14 q 112 -14 78 27 q 44 68 44 142 q 44 215 75 253 q 107 291 211 326 l 213 327 q 299 355 299 394 l 299 446 q 299 480 279 496 q 259 512 216 512 q 174 512 153 490 q 133 468 133 423 l 133 413 l 59 413 q 61 499 100 539 q 140 578 225 578 q 305 578 342 542 q 379 505 379 427 l 379 98 q 379 76 387 67 q 395 57 412 57 q 416 57 423 59 q 424 59 425 59 z"},"L":{"x_min":0,"x_max":476,"ha":476,"o":"m 67 0 l 67 752 l 151 752 l 151 81 l 451 81 l 451 0 z"},"3":{"x_min":0,"x_max":498,"ha":498,"o":"m 40 224 l 123 224 l 123 212 q 123 134 151 96 q 180 58 238 58 q 300 58 331 97 q 363 136 363 211 q 363 286 327 322 q 291 358 214 358 q 203 358 198 358 q 192 357 188 357 l 188 426 l 205 426 q 276 426 309 458 q 342 490 342 559 q 342 618 313 651 q 285 684 234 684 q 184 684 158 649 q 133 614 133 545 l 133 533 l 53 533 l 53 544 q 53 643 102 699 q 151 756 236 756 q 323 756 374 705 q 425 655 425 568 q 425 500 396 454 q 368 408 319 399 q 385 387 417 342 q 449 296 449 215 q 449 105 394 45 q 338 -15 238 -15 q 141 -15 91 44 q 40 104 40 217 z"},";":{"x_min":0,"x_max":250,"ha":250,"o":"m 80 452 l 80 555 l 169 555 l 169 452 z m 80 -144 l 80 -97 q 100 -93 112 -69 q 123 -45 123 -5 l 123 0 l 80 0 l 80 103 l 169 103 l 169 0 q 169 -57 145 -95 q 121 -134 80 -144 z"},"J":{"x_min":0,"x_max":421,"ha":421,"o":"m 17 233 l 98 233 l 98 160 q 98 107 120 81 q 141 54 183 54 q 234 54 253 85 q 273 117 273 225 l 273 752 l 354 752 l 354 168 q 354 74 311 28 q 268 -17 179 -17 q 99 -17 58 31 q 17 79 17 172 z"},"V":{"x_min":0,"x_max":525,"ha":525,"o":"m 213 0 l 3 752 l 94 752 l 263 104 l 437 752 l 521 752 l 314 0 z"},"\"":{"x_min":0,"x_max":300,"ha":300,"o":"m 256 701 l 256 430 l 188 430 l 188 701 z m 112 701 l 112 430 l 44 430 l 44 701 z"},"7":{"x_min":0,"x_max":498,"ha":498,"o":"m 117 0 q 140 190 206 355 q 272 520 381 661 l 45 661 l 45 743 l 453 743 l 453 671 q 345 527 283 356 q 222 186 211 0 z"},"S":{"x_min":0,"x_max":536,"ha":536,"o":"m 51 239 l 131 239 l 131 212 q 131 135 166 96 q 202 57 271 57 q 333 57 369 95 q 405 132 405 198 q 405 251 383 280 q 361 308 285 337 q 267 344 234 356 q 143 389 124 406 q 93 434 77 472 q 62 510 62 561 q 62 659 116 715 q 170 770 267 770 q 359 770 411 719 q 463 667 463 577 q 463 574 462 568 q 462 561 462 558 l 385 558 l 385 566 q 385 629 354 664 q 323 698 266 698 q 208 698 174 665 q 140 632 140 576 q 140 523 163 494 q 186 464 263 436 q 272 433 291 426 q 408 382 431 361 q 459 335 472 298 q 486 261 486 209 q 486 102 427 42 q 368 -17 262 -17 q 157 -17 104 42 q 50 100 50 214 q 50 218 50 226 q 51 235 51 239 z"},"}":{"x_min":0,"x_max":500,"ha":500,"o":"m 281 546 l 281 426 q 281 354 307 324 q 333 295 397 295 q 400 295 408 295 q 415 296 419 296 l 419 223 q 416 223 408 224 q 401 224 398 224 q 333 224 307 195 q 281 165 281 92 l 281 -28 q 281 -100 270 -131 q 259 -162 232 -178 q 211 -191 182 -197 q 152 -202 99 -202 l 78 -202 l 78 -130 l 97 -130 q 156 -130 176 -108 q 197 -86 197 -17 l 197 100 q 197 178 219 211 q 240 245 295 259 q 240 273 219 307 q 197 340 197 418 l 197 536 q 197 604 176 626 q 156 648 97 648 l 78 648 l 78 721 l 96 721 q 148 721 180 715 q 211 709 232 696 q 259 679 270 649 q 281 618 281 546 z"},"Z":{"x_min":0,"x_max":442,"ha":442,"o":"m 23 0 l 23 78 l 326 674 l 40 674 l 40 752 l 415 752 l 415 675 l 114 81 l 419 81 l 419 0 z"},"x":{"x_min":0,"x_max":403,"ha":403,"o":"m -9 0 l 151 291 l 2 562 l 92 562 l 200 360 l 310 562 l 398 562 l 248 297 l 411 0 l 319 0 l 198 228 l 80 0 z"},")":{"x_min":0,"x_max":319,"ha":319,"o":"m 84 -219 l 27 -219 q 50 -175 69 -132 q 89 -88 106 -43 q 130 21 141 97 q 152 173 152 273 q 152 424 122 538 q 92 651 27 752 l 84 752 q 162 639 200 520 q 239 400 239 270 q 239 146 202 30 q 166 -86 84 -219 z"},"&":{"x_min":0,"x_max":612,"ha":612,"o":"m 270 475 q 309 501 331 535 q 352 569 352 606 q 352 643 333 664 q 314 685 282 685 q 250 685 231 664 q 213 643 213 605 q 213 581 228 547 q 243 512 270 475 z m 408 135 l 243 375 q 191 341 166 301 q 141 261 141 211 q 141 148 180 105 q 220 62 278 62 q 315 62 349 81 q 383 100 408 135 z m 501 0 l 449 73 q 414 31 366 9 q 318 -13 263 -13 q 171 -13 114 48 q 56 109 56 207 q 56 278 92 331 q 127 384 206 431 q 172 476 153 521 q 134 565 134 601 q 134 669 175 711 q 217 754 284 754 q 348 754 390 713 q 431 672 431 609 q 431 554 400 507 q 369 459 306 421 l 450 211 q 458 235 464 271 q 471 306 474 350 l 554 350 q 550 285 535 233 q 521 181 497 146 l 598 0 z"},"_":{"x_min":0,"x_max":500,"ha":500,"o":"m 500 -166 l 500 -236 l 0 -236 l 0 -166 z"},"v":{"x_min":0,"x_max":426,"ha":426,"o":"m 168 0 l 16 562 l 102 562 l 212 121 l 327 562 l 409 562 l 253 0 z"},"O":{"x_min":0,"x_max":586,"ha":586,"o":"m 139 376 q 139 195 174 125 q 208 56 293 56 q 379 56 413 124 q 447 191 447 376 q 447 560 413 627 q 379 695 293 695 q 208 695 174 626 q 139 557 139 376 z m 52 376 q 52 586 109 678 q 166 770 293 770 q 421 770 478 679 q 534 588 534 376 q 534 164 478 73 q 422 -18 293 -18 q 166 -18 109 75 q 52 167 52 376 z"},"(":{"x_min":0,"x_max":319,"ha":319,"o":"m 246 -219 q 165 -86 128 30 q 91 146 91 270 q 91 400 129 520 q 168 639 246 752 l 303 752 q 238 651 208 538 q 178 424 178 273 q 178 171 189 95 q 200 20 223 -43 q 239 -84 259 -128 q 278 -172 303 -219 z"},"C":{"x_min":0,"x_max":565,"ha":565,"o":"m 423 276 l 506 276 q 504 133 447 57 q 389 -18 280 -18 q 164 -18 108 78 q 52 174 52 374 q 52 583 107 677 q 163 770 286 770 q 389 770 445 710 q 501 650 501 540 l 501 531 l 420 531 q 420 608 384 652 q 348 696 285 696 q 208 696 175 621 q 141 547 141 374 q 141 205 176 134 q 210 62 290 62 q 354 62 388 115 q 423 167 423 264 z"},"W":{"x_min":0,"x_max":791,"ha":791,"o":"m 171 0 l 12 752 l 99 752 l 217 116 l 350 752 l 446 752 l 576 121 l 696 752 l 778 752 l 619 0 l 529 0 l 397 614 l 263 0 z"},"A":{"x_min":0,"x_max":550,"ha":550,"o":"m 174 293 l 374 293 l 274 687 z m 15 0 l 220 752 l 327 752 l 535 0 l 450 0 l 393 217 l 155 217 l 100 0 z"},"f":{"x_min":0,"x_max":260,"ha":260,"o":"m 81 0 l 81 498 l 2 498 l 2 562 l 81 562 l 81 638 q 81 699 113 728 q 145 756 214 756 q 221 756 228 755 q 235 754 247 752 l 247 682 q 238 684 230 684 q 223 685 215 685 q 186 685 174 674 q 162 662 162 635 l 162 562 l 247 562 l 247 498 l 162 498 l 162 0 z"},"Q":{"x_min":0,"x_max":586,"ha":586,"o":"m 381 83 l 302 150 l 350 206 l 421 146 q 434 192 440 247 q 447 301 447 366 q 447 559 413 627 q 379 695 293 695 q 208 695 174 626 q 140 558 140 376 q 140 194 174 125 q 208 56 293 56 q 324 56 344 62 q 365 69 381 83 z m 443 30 q 421 6 384 -6 q 346 -18 293 -18 q 166 -18 109 75 q 52 167 52 376 q 52 586 109 678 q 166 770 293 770 q 421 770 478 679 q 534 588 534 376 q 534 274 521 201 q 509 128 485 90 l 570 21 l 525 -36 z"},"w":{"x_min":0,"x_max":666,"ha":666,"o":"m 165 0 l 21 562 l 102 562 l 206 113 l 293 562 l 373 562 l 470 112 l 567 562 l 645 562 l 509 0 l 431 0 l 333 436 l 247 0 z"},"-":{"x_min":0,"x_max":330,"ha":330,"o":"m 44 237 l 44 325 l 285 325 l 285 237 z"},"E":{"x_min":0,"x_max":490,"ha":490,"o":"m 67 0 l 67 752 l 440 752 l 440 674 l 150 674 l 150 432 l 421 432 l 421 356 l 150 356 l 150 79 l 443 79 l 443 0 z"},"s":{"x_min":0,"x_max":444,"ha":444,"o":"m 45 169 l 123 169 q 123 168 123 166 q 121 155 121 150 q 121 104 147 80 q 173 56 223 56 q 269 56 295 81 q 321 105 321 147 q 321 213 219 249 l 217 249 q 115 285 84 320 q 54 355 54 422 q 54 496 97 537 q 141 578 218 578 q 300 578 341 539 q 383 499 383 422 l 383 414 l 308 414 q 306 465 285 488 q 265 511 221 511 q 175 511 152 490 q 129 468 129 425 q 129 406 135 391 q 141 375 153 366 q 174 348 238 327 q 272 316 291 309 q 349 287 374 252 q 399 218 399 161 q 399 77 350 31 q 302 -15 212 -15 q 129 -15 87 29 q 45 72 45 157 z"},">":{"x_min":0,"x_max":833,"ha":833,"o":"m 704 330 l 704 267 l 129 31 l 129 106 l 603 298 l 129 491 l 129 566 z"},"l":{"x_min":0,"x_max":196,"ha":196,"o":"m 59 0 l 59 752 l 137 752 l 137 0 z"},"8":{"x_min":0,"x_max":498,"ha":498,"o":"m 248 686 q 201 686 177 654 q 152 622 152 561 q 152 507 178 474 q 204 442 248 442 q 297 442 323 474 q 349 506 349 565 q 349 622 322 654 q 295 686 248 686 z m 132 224 q 132 142 162 100 q 192 58 251 58 q 305 58 335 99 q 366 140 366 211 q 366 292 337 331 q 307 370 246 370 q 191 370 162 332 q 132 294 132 224 z m 177 406 q 124 421 97 460 q 71 500 71 564 q 71 655 119 706 q 167 757 252 757 q 334 757 383 707 q 431 656 431 570 q 431 505 404 464 q 377 424 323 409 q 389 394 421 348 q 452 302 452 220 q 452 108 399 46 q 346 -15 249 -15 q 156 -15 101 46 q 46 106 46 209 q 46 291 81 343 q 115 396 177 406 z"},"\\":{"x_min":0,"x_max":278,"ha":278,"o":"m 268 -93 l 0 770 l 54 770 l 322 -93 z"},"e":{"x_min":0,"x_max":440,"ha":440,"o":"m 125 342 l 316 342 l 316 357 q 316 435 293 474 q 271 513 225 513 q 174 513 150 471 q 125 429 125 342 z m 317 190 l 394 190 q 393 90 348 38 q 304 -15 221 -15 q 130 -15 87 56 q 44 126 44 275 q 44 432 87 505 q 130 578 223 578 q 311 578 353 516 q 396 454 396 327 q 396 307 396 297 q 396 287 395 278 l 125 278 l 125 253 q 125 147 149 99 q 174 51 227 51 q 269 51 293 87 q 317 124 317 186 z"},"b":{"x_min":0,"x_max":479,"ha":479,"o":"m 134 285 q 134 163 160 111 q 186 59 244 59 q 299 59 323 114 q 348 168 348 291 q 348 401 322 453 q 296 505 241 505 q 183 505 158 456 q 134 407 134 285 z m 61 0 l 61 752 l 139 752 l 139 504 q 149 536 183 555 q 217 575 261 575 q 343 575 389 503 q 434 431 434 299 q 434 147 389 68 q 344 -11 257 -11 q 212 -11 178 11 q 145 34 134 71 l 134 0 z"},"%":{"x_min":0,"x_max":698,"ha":698,"o":"m 514 307 q 477 307 461 278 q 446 249 446 175 q 446 115 462 88 q 479 60 514 60 q 550 60 566 91 q 583 122 583 189 q 583 249 566 278 q 549 307 514 307 z m 378 187 q 378 277 412 322 q 445 367 513 367 q 584 367 618 323 q 652 279 652 187 q 652 96 617 48 q 582 0 515 0 q 445 0 411 46 q 378 91 378 187 z m 182 683 q 145 683 130 654 q 115 625 115 551 q 115 491 131 463 q 147 436 182 436 q 218 436 234 467 q 251 498 251 565 q 251 625 234 654 q 217 683 182 683 z m 46 563 q 46 653 80 698 q 113 743 181 743 q 251 743 286 699 q 320 655 320 564 q 320 473 284 424 q 249 376 182 376 q 112 376 79 421 q 46 467 46 563 z m 149 -14 l 488 757 l 545 757 l 207 -14 z"},"m":{"x_min":0,"x_max":746,"ha":746,"o":"m 60 0 l 60 562 l 133 562 l 133 494 q 156 534 193 555 q 230 575 281 575 q 328 575 359 554 q 390 533 402 493 q 427 534 463 555 q 499 575 548 575 q 616 575 653 540 q 689 504 689 437 l 689 0 l 608 0 l 608 388 q 608 457 590 481 q 573 505 529 505 q 479 505 447 473 q 415 441 415 391 l 415 0 l 334 0 l 334 391 q 334 453 315 479 q 296 505 253 505 q 202 505 169 474 q 137 443 137 395 l 137 0 z"},"#":{"x_min":0,"x_max":769,"ha":769,"o":"m 473 419 l 346 419 l 301 290 l 428 290 z m 451 712 l 372 490 l 497 490 l 577 712 l 657 712 l 579 490 l 726 490 l 701 419 l 553 419 l 508 291 l 665 291 l 640 219 l 483 219 l 404 -2 l 323 -2 l 402 219 l 276 219 l 197 -2 l 116 -2 l 194 219 l 43 219 l 69 291 l 220 291 l 265 419 l 104 419 l 129 490 l 291 490 l 370 712 z"},",":{"x_min":0,"x_max":250,"ha":250,"o":"m 78 -144 l 78 -97 q 98 -93 109 -69 q 120 -45 120 -5 l 120 0 l 78 0 l 78 103 l 167 103 l 167 0 q 167 -57 143 -95 q 119 -134 78 -144 z"},"n":{"x_min":0,"x_max":470,"ha":470,"o":"m 60 0 l 60 562 l 134 562 l 134 492 q 154 533 189 554 q 225 574 275 574 q 349 574 381 537 q 412 499 412 407 l 412 0 l 333 0 l 333 413 q 333 459 313 481 q 294 504 254 504 q 201 504 170 471 q 139 438 139 381 l 139 0 z"},"h":{"x_min":0,"x_max":470,"ha":470,"o":"m 60 0 l 60 752 l 139 752 l 139 501 q 161 538 195 556 q 228 574 275 574 q 340 574 376 541 q 412 507 412 447 l 412 0 l 333 0 l 333 409 q 333 459 314 481 q 295 504 254 504 q 202 504 170 471 q 139 438 139 381 l 139 0 z"},"z":{"x_min":0,"x_max":387,"ha":387,"o":"m 23 0 l 23 72 l 264 491 l 33 491 l 33 562 l 358 562 l 358 499 l 112 75 l 363 75 l 363 0 z"},"B":{"x_min":0,"x_max":541,"ha":541,"o":"m 148 432 l 236 432 q 315 432 347 461 q 379 491 379 562 q 379 630 346 657 q 314 685 231 685 l 148 685 z m 148 74 l 255 74 q 332 74 365 106 q 399 139 399 212 q 399 294 363 329 q 327 363 240 363 l 148 363 z m 67 0 l 67 752 l 263 752 q 369 752 416 707 q 464 663 464 564 q 464 497 438 456 q 413 415 360 400 q 425 387 457 342 q 488 296 488 216 q 488 113 431 56 q 375 0 271 0 z"},"K":{"x_min":0,"x_max":542,"ha":542,"o":"m 67 0 l 67 752 l 150 752 l 150 390 l 422 752 l 519 752 l 285 448 l 536 0 l 434 0 l 229 375 l 150 272 l 150 0 z"},"R":{"x_min":0,"x_max":584,"ha":584,"o":"m 149 407 l 251 407 q 339 407 381 441 q 422 475 422 547 q 422 616 385 647 q 349 678 267 678 l 149 678 z m 67 0 l 67 752 l 278 752 q 395 752 451 704 q 508 657 508 559 q 508 483 474 438 q 439 393 368 375 q 431 370 462 334 q 493 299 500 226 q 502 198 505 150 q 513 27 545 0 l 441 0 q 425 26 421 123 q 418 171 416 199 q 409 277 376 305 q 342 334 256 334 l 149 334 l 149 0 z"},"T":{"x_min":0,"x_max":486,"ha":486,"o":"m 206 0 l 206 675 l 14 675 l 14 752 l 472 752 l 472 675 l 292 675 l 292 0 z"},"P":{"x_min":0,"x_max":530,"ha":530,"o":"m 151 392 l 261 392 q 337 392 373 428 q 409 465 409 543 q 409 615 373 647 q 337 679 256 679 l 151 679 z m 67 0 l 67 752 l 260 752 q 383 752 439 701 q 496 651 496 542 q 496 430 437 373 q 378 316 263 316 l 151 316 l 151 0 z"},"|":{"x_min":0,"x_max":500,"ha":500,"o":"m 287 764 l 287 -236 l 214 -236 l 214 764 z"},"t":{"x_min":0,"x_max":246,"ha":246,"o":"m 150 116 q 150 81 163 70 q 175 59 223 59 q 229 59 234 59 q 238 60 241 60 l 241 -9 q 234 -9 222 -10 q 191 -11 183 -11 q 127 -11 100 11 q 73 33 73 78 l 73 497 l -5 497 l -5 562 l 73 562 l 73 712 l 150 712 l 150 562 l 241 562 l 241 497 l 150 497 z"},"M":{"x_min":0,"x_max":738,"ha":738,"o":"m 588 0 l 588 709 l 405 0 l 323 0 l 148 709 l 148 0 l 66 0 l 66 752 l 207 752 l 365 111 l 531 752 l 670 752 l 670 0 z"},"g":{"x_min":0,"x_max":475,"ha":475,"o":"m 128 280 q 128 162 153 111 q 177 60 233 60 q 291 60 316 112 q 341 164 341 287 q 341 403 315 456 q 289 508 231 508 q 177 508 152 455 q 128 401 128 280 z m 62 -52 l 140 -52 q 143 -86 166 -104 q 189 -121 232 -121 q 290 -121 315 -83 q 341 -46 341 38 q 341 41 340 50 q 340 60 340 68 q 323 30 291 10 q 260 -9 215 -9 q 129 -9 87 67 q 45 143 45 298 q 45 436 89 506 q 133 575 221 575 q 266 575 297 554 q 328 534 341 496 l 341 562 l 417 562 l 417 26 q 417 -78 367 -134 q 317 -190 226 -190 q 154 -190 108 -152 q 62 -114 62 -55 z"},"j":{"x_min":0,"x_max":208,"ha":208,"o":"m 72 651 l 72 752 l 150 752 l 150 650 z m 10 -189 l 10 -122 l 14 -122 q 48 -122 60 -108 q 72 -95 72 -48 l 72 562 l 150 562 l 150 -54 q 150 -125 119 -157 q 89 -189 20 -189 z"},"i":{"x_min":0,"x_max":199,"ha":199,"o":"m 59 650 l 59 752 l 140 752 l 140 650 z m 59 0 l 59 562 l 140 562 l 140 0 z"},"y":{"x_min":0,"x_max":444,"ha":444,"o":"m 38 -180 l 38 -109 q 50 -114 62 -117 q 75 -119 87 -119 q 122 -119 142 -96 q 162 -72 182 -5 l 17 562 l 102 562 l 222 109 l 346 562 l 427 562 l 254 -25 q 227 -121 191 -155 q 155 -189 90 -189 q 80 -189 67 -187 q 53 -185 38 -180 z"},"@":{"x_min":0,"x_max":1000,"ha":1000,"o":"m 627 417 l 655 473 l 719 473 l 648 192 q 646 184 645 177 q 644 169 644 163 q 644 141 656 129 q 669 117 693 117 q 716 117 743 130 q 770 143 795 167 q 834 204 856 258 q 878 312 878 372 q 878 499 785 577 q 692 656 541 656 q 476 656 421 642 q 366 628 318 600 q 225 544 173 454 q 122 363 122 254 q 122 167 152 104 q 182 40 246 -9 q 295 -46 362 -67 q 428 -87 502 -87 q 584 -87 662 -63 q 740 -39 805 6 l 832 -34 q 760 -88 678 -116 q 597 -143 508 -143 q 415 -143 338 -120 q 261 -97 201 -52 q 126 6 89 82 q 52 158 52 255 q 52 335 77 408 q 103 480 151 539 q 222 626 323 671 q 423 716 545 716 q 625 716 696 694 q 768 672 820 632 q 883 583 916 519 q 949 455 949 381 q 949 295 918 227 q 887 159 828 112 q 795 85 755 71 q 715 57 674 57 q 625 57 601 76 q 576 96 576 134 l 576 143 q 549 100 513 79 q 477 58 429 58 q 354 58 315 100 q 276 141 276 220 q 276 335 343 413 q 411 490 509 490 q 550 490 580 472 q 609 454 627 417 z m 581 232 l 610 347 q 602 390 576 414 q 551 437 513 437 q 446 437 400 374 q 354 310 354 218 q 354 167 378 139 q 401 111 445 111 q 492 111 530 145 q 568 178 581 232 z"},".":{"x_min":0,"x_max":250,"ha":250,"o":"m 80 0 l 80 103 l 169 103 l 169 0 z"},"p":{"x_min":0,"x_max":476,"ha":476,"o":"m 136 283 q 136 168 164 113 q 191 57 248 57 q 300 57 324 111 q 348 164 348 284 q 348 401 324 453 q 299 505 245 505 q 187 505 161 454 q 136 403 136 283 z m 60 -190 l 60 562 l 136 562 l 136 491 q 145 528 178 552 q 212 575 255 575 q 344 575 388 502 q 433 428 433 282 q 433 130 392 59 q 350 -12 262 -12 q 222 -12 191 7 q 159 25 141 60 l 141 -190 z"},"X":{"x_min":0,"x_max":494,"ha":494,"o":"m -12 0 l 197 389 l -2 752 l 100 752 l 249 467 l 400 752 l 496 752 l 295 391 l 506 0 l 405 0 l 246 315 l 85 0 z"},"*":{"x_min":0,"x_max":500,"ha":500,"o":"m 249 516 l 162 389 l 105 430 l 203 550 l 59 589 l 81 656 l 219 606 l 219 752 l 279 752 l 279 606 l 416 654 l 441 590 l 296 550 l 394 430 l 337 389 z"},"Y":{"x_min":0,"x_max":502,"ha":502,"o":"m 207 0 l 207 291 l -15 752 l 85 752 l 251 382 l 425 752 l 516 752 l 292 291 l 292 0 z"},"c":{"x_min":0,"x_max":460,"ha":460,"o":"m 332 198 l 409 198 q 409 96 362 41 q 315 -15 230 -15 q 136 -15 91 59 q 46 132 46 285 q 46 432 93 505 q 140 577 235 577 q 313 577 359 529 q 405 481 405 398 l 405 386 l 328 386 q 326 445 303 476 q 280 507 238 507 q 180 507 156 456 q 131 405 131 282 q 131 158 156 107 q 181 55 239 55 q 283 55 307 92 q 331 128 332 198 z"},"!":{"x_min":0,"x_max":259,"ha":259,"o":"m 88 0 l 88 103 l 171 103 l 171 0 z m 105 185 l 84 538 l 84 752 l 175 752 l 175 538 l 154 185 z"},"/":{"x_min":0,"x_max":278,"ha":278,"o":"m 284 770 l 16 -93 l -38 -93 l 230 770 z"},"[":{"x_min":0,"x_max":319,"ha":319,"o":"m 114 -212 l 114 752 l 291 752 l 291 692 l 195 692 l 195 -151 l 291 -151 l 291 -212 z"},"6":{"x_min":0,"x_max":498,"ha":498,"o":"m 136 244 q 136 154 168 106 q 200 57 259 57 q 314 57 344 105 q 373 152 373 241 q 373 324 343 368 q 312 411 253 411 q 192 411 164 371 q 136 331 136 244 z m 126 389 q 144 435 180 459 q 217 483 267 483 q 357 483 408 420 q 459 357 459 245 q 459 125 405 55 q 351 -15 259 -15 q 148 -15 97 70 q 47 156 47 345 q 47 565 98 661 q 149 757 264 757 q 344 757 391 708 q 438 660 438 577 l 355 577 l 355 582 q 355 629 330 657 q 305 684 261 684 q 194 684 165 624 q 135 563 126 389 z"},"r":{"x_min":0,"x_max":291,"ha":291,"o":"m 60 0 l 60 562 l 133 562 l 133 470 q 150 520 184 547 q 219 575 263 575 q 276 575 283 575 q 291 574 297 573 l 297 489 q 291 493 283 494 q 275 496 266 496 q 206 496 172 456 q 138 416 138 344 l 138 0 z"},"2":{"x_min":0,"x_max":498,"ha":498,"o":"m 49 0 q 48 5 48 11 q 48 17 48 29 q 48 103 80 167 q 112 232 179 292 q 192 303 216 325 q 292 392 317 421 q 337 445 347 476 q 356 506 356 549 q 356 614 327 648 q 298 683 245 683 q 190 683 163 645 q 136 606 136 528 q 136 528 137 520 q 137 511 137 503 l 56 503 q 56 507 56 516 q 55 525 55 530 q 55 639 106 698 q 156 758 249 758 q 340 758 392 704 q 443 650 443 553 q 443 504 433 467 q 423 429 401 397 q 379 363 303 301 q 284 286 274 278 q 197 214 166 168 q 134 123 133 77 l 449 77 l 449 0 z"},"{":{"x_min":0,"x_max":500,"ha":500,"o":"m 423 648 l 403 648 q 344 648 324 626 q 304 604 304 536 l 304 418 q 304 340 282 307 q 261 273 206 259 q 261 245 283 212 q 304 179 304 100 l 304 -18 q 304 -87 324 -108 q 345 -130 404 -130 l 423 -130 l 423 -202 l 402 -202 q 349 -202 319 -197 q 290 -191 269 -178 q 242 -162 231 -131 q 220 -100 220 -28 l 220 92 q 220 165 194 194 q 167 224 103 224 q 100 224 93 224 q 85 223 82 223 l 82 296 q 86 296 93 295 q 101 295 104 295 q 167 295 194 324 q 220 354 220 426 l 220 546 q 220 618 231 649 q 242 679 269 696 q 291 709 322 715 q 353 721 405 721 l 423 721 z"},"9":{"x_min":0,"x_max":498,"ha":498,"o":"m 362 498 q 362 587 330 636 q 298 684 239 684 q 184 684 155 636 q 125 589 125 500 q 125 417 156 374 q 186 331 245 331 q 305 331 333 371 q 362 412 362 498 z m 372 352 q 354 307 318 282 q 281 258 231 258 q 141 258 90 321 q 39 385 39 497 q 39 617 93 687 q 147 757 239 757 q 350 757 401 672 q 451 586 451 397 q 451 177 400 81 q 349 -15 234 -15 q 154 -15 107 34 q 59 83 59 165 l 143 165 l 143 160 q 143 113 168 85 q 193 58 237 58 q 304 58 333 118 q 363 179 372 352 z"}," ":{"x_min":0,"x_max":249,"ha":249,"o":""},"I":{"x_min":0,"x_max":220,"ha":220,"o":"m 67 0 l 67 752 l 153 752 l 153 0 z"},"H":{"x_min":0,"x_max":586,"ha":586,"o":"m 67 0 l 67 752 l 153 752 l 153 442 l 433 442 l 433 752 l 519 752 l 519 0 l 433 0 l 433 366 l 153 366 l 153 0 z"},"4":{"x_min":0,"x_max":498,"ha":498,"o":"m 100 264 l 303 264 l 312 649 z m 303 0 l 303 192 l 31 192 l 31 265 l 310 756 l 383 756 l 383 264 l 453 264 l 453 192 l 383 192 l 383 0 z"},"~":{"x_min":0,"x_max":833,"ha":833,"o":"m 747 300 q 696 265 650 248 q 604 231 557 231 q 512 231 432 259 q 421 263 416 265 l 408 268 q 322 297 275 297 q 234 297 189 279 q 145 261 87 220 l 87 296 q 139 331 186 349 q 232 366 276 366 q 306 366 338 360 q 370 353 418 336 q 426 333 441 328 q 519 300 558 300 q 601 300 646 318 q 690 336 747 376 z"},"D":{"x_min":0,"x_max":582,"ha":582,"o":"m 151 72 l 260 72 q 312 72 342 83 q 371 93 387 117 q 414 156 425 213 q 437 271 437 375 q 437 557 399 618 q 361 679 257 679 l 151 679 z m 67 0 l 67 752 l 280 752 q 408 752 468 667 q 529 581 529 401 q 529 274 508 192 q 487 109 443 61 q 413 28 375 14 q 336 0 261 0 z"},"^":{"x_min":0,"x_max":1000,"ha":1000,"o":"m 545 712 l 794 440 l 706 440 l 500 645 l 293 440 l 205 440 l 454 712 z"},"0":{"x_min":0,"x_max":498,"ha":498,"o":"m 133 374 q 133 191 159 125 q 185 58 250 58 q 315 58 340 118 q 365 179 365 373 q 365 554 339 619 q 313 683 249 683 q 184 683 158 621 q 133 560 133 374 z m 46 372 q 46 583 93 670 q 140 756 249 756 q 304 756 344 732 q 383 708 411 657 q 433 618 442 553 q 452 487 452 371 q 452 162 406 73 q 359 -15 252 -15 q 140 -15 93 71 q 46 158 46 372 z"},"F":{"x_min":0,"x_max":432,"ha":432,"o":"m 67 0 l 67 752 l 414 752 l 414 676 l 153 676 l 153 434 l 396 434 l 396 356 l 153 356 l 153 0 z"},"`":{"x_min":0,"x_max":500,"ha":500,"o":"m 309 623 l 260 623 l 139 755 l 226 755 z"},"k":{"x_min":0,"x_max":424,"ha":424,"o":"m 60 0 l 60 752 l 136 752 l 136 307 l 328 562 l 420 562 l 252 349 l 433 0 l 337 0 l 198 277 l 136 200 l 136 0 z"},"u":{"x_min":0,"x_max":470,"ha":470,"o":"m 333 0 l 333 73 q 316 31 280 8 q 244 -15 193 -15 q 123 -15 90 20 q 58 54 58 130 l 58 562 l 140 562 l 140 128 q 140 93 157 74 q 175 55 206 55 q 263 55 294 90 q 326 125 326 189 l 326 562 l 406 562 l 406 0 z"},"]":{"x_min":0,"x_max":319,"ha":319,"o":"m 205 -212 l 28 -212 l 28 -151 l 124 -151 l 124 692 l 28 692 l 28 752 l 205 752 z"},"U":{"x_min":0,"x_max":576,"ha":576,"o":"m 68 752 l 152 752 l 152 246 q 152 141 182 99 q 212 58 284 58 q 357 58 392 104 q 427 149 427 246 l 427 752 l 509 752 l 509 261 q 509 166 498 127 q 487 87 462 57 q 431 21 386 2 q 341 -17 283 -17 q 224 -17 177 3 q 130 23 103 61 q 84 86 76 126 q 68 166 68 261 z"},"o":{"x_min":0,"x_max":483,"ha":483,"o":"m 44 281 q 44 432 93 505 q 141 578 241 578 q 343 578 391 506 q 439 434 439 281 q 439 128 391 56 q 343 -15 241 -15 q 139 -15 91 56 q 44 127 44 281 z m 128 281 q 128 155 154 103 q 180 52 241 52 q 302 52 328 104 q 354 157 354 281 q 354 406 328 457 q 302 509 241 509 q 180 509 154 458 q 128 407 128 281 z"},"N":{"x_min":0,"x_max":580,"ha":580,"o":"m 67 0 l 67 752 l 179 752 l 440 107 l 432 752 l 513 752 l 513 0 l 406 0 l 141 664 l 148 0 z"},"+":{"x_min":0,"x_max":833,"ha":833,"o":"m 451 596 l 451 332 l 709 332 l 709 264 l 451 264 l 451 0 l 382 0 l 382 264 l 124 264 l 124 332 l 382 332 l 382 596 z"},"G":{"x_min":0,"x_max":593,"ha":593,"o":"m 466 0 l 461 104 q 440 45 396 13 q 351 -18 288 -18 q 167 -18 109 79 q 52 175 52 381 q 52 585 112 678 q 172 770 305 770 q 407 770 465 709 q 522 647 523 537 l 440 537 q 438 614 401 656 q 365 698 301 698 q 213 698 176 622 q 139 545 139 357 q 139 206 179 134 q 218 61 300 61 q 374 61 412 118 q 451 174 451 282 q 451 295 451 302 q 451 310 450 316 l 280 316 l 280 392 l 531 392 l 531 0 z"},"q":{"x_min":0,"x_max":476,"ha":476,"o":"m 340 283 q 340 403 314 454 q 289 505 231 505 q 177 505 152 453 q 128 401 128 284 q 128 164 152 111 q 175 57 228 57 q 285 57 312 113 q 340 168 340 283 z m 416 -190 l 335 -190 l 335 60 q 317 25 285 7 q 254 -12 214 -12 q 126 -12 84 59 q 43 130 43 282 q 43 428 88 502 q 132 575 221 575 q 264 575 297 552 q 331 528 340 491 l 340 562 l 416 562 z"},"d":{"x_min":0,"x_max":476,"ha":476,"o":"m 344 285 q 344 408 320 457 q 296 505 238 505 q 183 505 156 453 q 130 400 130 291 q 130 169 155 114 q 180 59 235 59 q 293 59 319 111 q 344 163 344 285 z m 418 0 l 344 0 l 344 71 q 333 34 300 11 q 267 -11 222 -11 q 135 -11 90 68 q 44 147 44 299 q 44 430 90 503 q 136 575 218 575 q 262 575 296 555 q 330 535 339 504 l 339 752 l 418 752 z"},"1":{"x_min":0,"x_max":498,"ha":498,"o":"m 235 0 l 235 553 l 75 553 l 75 617 l 85 617 q 165 617 206 651 q 246 686 250 757 l 316 757 l 316 0 z"},"5":{"x_min":0,"x_max":498,"ha":498,"o":"m 43 198 l 125 198 l 125 192 q 125 128 154 94 q 184 59 237 59 q 296 59 327 106 q 358 153 358 242 q 358 332 327 376 q 296 421 235 421 q 195 421 167 403 q 140 384 129 351 l 58 357 l 99 743 l 416 743 l 416 667 l 164 667 l 137 443 q 148 467 180 482 q 212 497 255 497 q 343 497 394 432 q 445 367 445 253 q 445 126 391 55 q 336 -15 238 -15 q 144 -15 94 40 q 44 94 43 198 z"}}}
